<?xml version="1.0" standalone="no"?>
<!DOCTYPE svg PUBLIC "-//W3C//DTD SVG 20010904//EN"
 "http://www.w3.org/TR/2001/REC-SVG-20010904/DTD/svg10.dtd">
<svg version="1.0" xmlns="http://www.w3.org/2000/svg"
 width="700.000000pt" height="700.000000pt" viewBox="0 0 700.000000 700.000000"
 preserveAspectRatio="xMidYMid meet">
<metadata>
Created by potrace 1.14, written by Peter Selinger 2001-2017
</metadata>
<g transform="translate(0.000000,700.000000) scale(0.100000,-0.100000)"
fill="#000000" stroke="none">
<path d="M3296 6579 c-44 -5 -91 -10 -105 -13 -14 -2 -55 -9 -91 -15 -130 -21
-387 -99 -472 -142 -21 -11 -41 -19 -46 -19 -18 0 -240 -124 -327 -183 -273
-184 -504 -426 -671 -703 -165 -272 -289 -635 -320 -934 -2 -25 -6 -58 -9 -75
-2 -16 -5 -58 -6 -93 l-2 -63 -77 -53 c-338 -237 -549 -646 -551 -1070 -1
-155 11 -243 60 -433 6 -24 29 -84 51 -135 23 -51 42 -95 43 -98 2 -5 -46
-145 -63 -185 -5 -11 -38 -101 -74 -200 -35 -99 -127 -353 -204 -565 -77 -212
-149 -410 -160 -440 -11 -30 -57 -156 -102 -280 -45 -124 -99 -272 -120 -330
-21 -58 -41 -113 -45 -122 -7 -17 7 -18 197 -18 l205 0 18 43 c29 70 30 72
130 352 53 149 112 311 130 360 54 146 167 456 185 510 39 110 182 500 186
504 2 3 17 -5 32 -17 274 -215 569 -316 897 -306 61 2 124 5 140 8 92 14 115
19 165 32 176 48 371 145 500 249 61 49 185 174 218 220 20 28 39 52 42 55 18
15 101 166 132 240 57 134 101 307 107 418 1 9 50 12 210 12 l208 0 7 -47 c3
-27 8 -60 11 -75 3 -16 7 -38 9 -50 39 -226 191 -507 366 -678 169 -165 414
-300 638 -351 159 -36 384 -45 517 -20 33 6 74 14 90 16 128 23 394 142 495
222 8 7 35 28 60 47 l44 35 33 -92 c19 -51 45 -123 58 -162 14 -38 144 -396
289 -795 l263 -725 206 -2 206 -2 -29 82 c-16 45 -42 118 -58 162 -29 77 -183
502 -223 615 -11 30 -22 62 -26 70 -3 8 -7 20 -9 25 -1 6 -34 98 -74 205 -84
230 -182 498 -283 777 l-73 202 32 68 c51 108 83 212 109 358 29 165 18 404
-27 570 -89 329 -257 562 -562 777 -20 15 -24 26 -25 70 0 29 -2 69 -5 88 -3
19 -8 62 -11 95 -4 33 -11 83 -16 110 -6 28 -13 64 -15 80 -7 42 -32 139 -54
210 -202 667 -674 1188 -1310 1448 -140 57 -310 107 -435 127 -33 6 -71 12
-85 15 -106 19 -395 27 -524 14z m404 -413 c195 -21 426 -89 614 -181 475
-232 828 -666 961 -1181 32 -125 31 -120 51 -258 l7 -48 -33 7 c-70 15 -150
22 -260 23 -129 0 -215 -11 -344 -44 -254 -65 -505 -226 -689 -442 -44 -52
-132 -191 -167 -265 -18 -37 -35 -68 -39 -68 -3 -1 -141 -2 -306 -3 l-300 -1
-45 89 c-195 390 -592 672 -1020 724 -105 13 -384 4 -442 -14 -13 -4 -18 0
-18 14 0 18 33 204 44 247 177 704 709 1222 1407 1370 66 14 158 28 202 31 45
4 83 8 85 9 5 4 234 -3 292 -9z m-1604 -2270 c153 -32 261 -91 370 -200 259
-262 280 -664 49 -959 -85 -107 -239 -207 -375 -243 -86 -22 -247 -26 -330 -8
-421 90 -668 515 -539 923 111 350 470 562 825 487z m3169 -19 c460 -151 646
-695 374 -1092 -92 -133 -217 -227 -372 -279 -77 -26 -114 -31 -232 -30 -155
0 -268 35 -398 122 -153 102 -277 294 -302 467 -57 387 168 732 540 827 105
27 283 20 390 -15z"/>
<path d="M3024 1634 c-56 -19 -86 -45 -114 -100 l-25 -48 -1 -454 -1 -454 25
-49 c41 -83 121 -126 209 -114 77 10 121 42 159 115 16 32 18 73 18 500 0 458
-1 466 -22 507 -47 90 -151 131 -248 97z"/>
<path d="M3841 1633 c-52 -17 -117 -93 -127 -145 -4 -24 -8 -230 -9 -458 -1
-443 3 -484 49 -541 87 -110 268 -96 338 26 l23 40 0 475 c0 528 3 505 -69
568 -57 50 -126 62 -205 35z"/>
<path d="M2205 1224 c-59 -20 -87 -45 -117 -104 l-28 -54 0 -236 c0 -272 7
-307 70 -364 92 -83 234 -67 305 33 l30 43 3 268 c3 258 2 271 -18 311 -48 92
-150 136 -245 103z"/>
<path d="M4695 1230 c-73 -16 -119 -57 -148 -128 -14 -36 -17 -80 -17 -274 0
-256 5 -287 57 -347 33 -39 101 -71 151 -71 79 0 172 66 191 137 17 61 14 523
-3 564 -37 88 -138 140 -231 119z"/>
</g>
</svg>
